<svg width="724" height="180" viewBox="0 0 724 180" fill="none" xmlns="http://www.w3.org/2000/svg">
<g clip-path="url(#clip0_2_3)">
<path d="M184.368 116.18V62.444H174.039V48.3797H184.368V26.4588H200.102V48.3797H210.43V62.444H200.102V116.18H184.368Z" fill="#0071BC"/>
<path d="M249.428 62.1456C243.346 62.6306 239.099 64.2795 236.686 66.9953C234.272 69.7112 233.114 74.561 233.114 81.6413V116.172H217.38V48.3723H232.149V56.2289C234.562 53.222 237.072 50.9912 239.968 49.5362C242.767 48.0813 245.952 47.4023 249.524 47.4023V62.1456H249.428Z" fill="#0071BC"/>
<path d="M301.937 116.174V108.802C299.621 111.907 297.015 114.137 294.023 115.689C291.03 117.144 287.651 117.92 283.887 117.92C275.393 117.92 268.925 115.301 264.388 110.063C259.851 104.826 257.535 97.3567 257.535 87.5602V48.2775H273.462V78.7342C273.462 87.8512 274.524 94.1565 276.55 97.551C278.675 100.946 282.246 102.595 287.362 102.595C292.575 102.595 296.339 100.752 298.655 96.969C300.972 93.186 302.034 86.7847 302.034 77.7637V48.3746H317.479V116.174H301.937Z" fill="#0071BC"/>
<path d="M343.544 87.267C344.123 92.1165 346.054 95.9963 349.335 98.8095C352.714 101.622 356.961 103.077 362.27 103.077C365.746 103.077 368.931 102.301 371.73 100.846C374.53 99.3915 376.75 97.257 378.391 94.638H395.283C392.387 102.01 388.14 107.733 382.445 111.904C376.75 115.977 370.186 118.014 362.656 118.014C357.637 118.014 353.004 117.141 348.756 115.298C344.509 113.552 340.745 110.837 337.366 107.345C334.181 104.047 331.671 100.167 329.934 95.802C328.196 91.4378 327.327 86.976 327.327 82.32C327.327 77.5673 328.1 73.1055 329.74 68.9347C331.382 64.7639 333.698 60.9811 336.883 57.6833C340.359 53.9975 344.22 51.1846 348.564 49.2447C352.908 47.3048 357.348 46.3349 361.981 46.3349C367.869 46.3349 373.274 47.6928 378.391 50.3117C383.507 53.0275 387.754 56.7134 391.326 61.5631C393.449 64.4729 395.09 67.7708 396.152 71.3596C397.214 74.9484 397.696 79.119 397.696 83.775C397.696 84.1628 397.696 84.7448 397.6 85.4235C397.6 86.1998 397.503 86.7818 397.503 87.0728H343.544V87.267ZM380.804 74.7544C379.452 70.1957 377.233 66.8008 374.047 64.4729C370.861 62.1451 366.904 60.8841 362.078 60.8841C357.927 60.8841 354.162 62.145 350.881 64.6669C347.599 67.1888 345.378 70.5836 344.22 74.7544H380.804Z" fill="#0071BC"/>
<path d="M422.887 48.3702V56.0328C425.204 52.929 427.81 50.698 430.802 49.1461C433.795 47.6912 437.173 46.9153 440.937 46.9153C446.343 46.9153 451.073 47.8852 454.934 49.8251C458.795 51.765 462.078 54.7719 464.877 58.8456C467.579 54.7719 470.475 51.862 473.853 49.8251C477.135 47.8852 480.804 46.9153 484.858 46.9153C493.16 46.9153 499.434 49.5341 503.874 54.7719C508.314 60.0096 510.535 67.4782 510.535 77.178V116.17H495.09V86.1015C495.09 76.887 494.125 70.6791 492.097 67.2842C490.07 63.9864 486.596 62.3375 481.576 62.3375C476.363 62.3375 472.695 64.1804 470.475 67.9632C468.255 71.649 467.096 78.051 467.096 87.0712V116.17H451.556V86.1015C451.556 76.9837 450.494 70.6791 448.466 67.3812C446.44 64.0834 442.771 62.4345 437.656 62.4345C432.443 62.4345 428.678 64.2774 426.362 68.0601C424.045 71.7459 422.887 78.1477 422.887 87.168V116.17H407.732V48.3702H422.887Z" fill="#22B573"/>
<path d="M536.308 87.267C536.887 92.1165 538.818 95.9963 542.1 98.8095C545.479 101.622 549.726 103.077 555.035 103.077C558.51 103.077 561.695 102.301 564.494 100.846C567.293 99.3915 569.514 97.257 571.154 94.638H588.048C585.152 102.01 580.904 107.733 575.209 111.904C569.514 115.977 562.95 118.014 555.421 118.014C550.401 118.014 545.767 117.141 541.52 115.298C537.273 113.552 533.509 110.837 530.131 107.345C526.945 104.047 524.435 100.167 522.697 95.802C520.96 91.4378 520.092 86.976 520.092 82.32C520.092 77.5673 520.863 73.1055 522.505 68.9347C524.145 64.7639 526.462 60.9811 529.648 57.6833C533.123 53.9975 536.984 51.1846 541.328 49.2447C545.671 47.3048 550.111 46.3349 554.745 46.3349C560.633 46.3349 566.039 47.6928 571.154 50.3117C576.271 53.0275 580.518 56.7134 584.089 61.5631C586.213 64.4729 587.854 67.7708 588.916 71.3596C589.978 74.9484 590.461 79.119 590.461 83.775C590.461 84.1628 590.461 84.7448 590.364 85.4235C590.364 86.1998 590.267 86.7818 590.267 87.0728H536.308V87.267ZM573.568 74.7544C572.217 70.1957 569.997 66.8008 566.811 64.4729C563.626 62.1451 559.668 60.8841 554.841 60.8841C550.691 60.8841 546.926 62.145 543.644 64.6669C540.362 67.1888 538.142 70.5836 536.984 74.7544H573.568Z" fill="#22B573"/>
<path d="M652.627 53.804V26.4514H668.072V116.172H652.627V110.643C649.538 113.068 646.256 114.911 642.781 116.172C639.306 117.336 635.638 118.015 631.584 118.015C627.337 118.015 623.282 117.336 619.518 115.978C615.753 114.62 612.375 112.68 609.382 110.061C605.328 106.569 602.143 102.301 599.922 97.5487C597.703 92.6992 596.64 87.558 596.64 82.1265C596.64 77.0827 597.606 72.33 599.633 67.6743C601.66 63.1155 604.556 59.0418 608.224 55.7439C611.313 52.8341 614.788 50.6031 618.746 49.0512C622.703 47.4993 626.951 46.7233 631.487 46.7233C635.831 46.7233 639.692 47.3053 642.974 48.3723C646.546 49.6332 649.731 51.3792 652.627 53.804ZM651.951 82.6117C651.951 76.7917 650.117 71.9421 646.449 68.1593C642.781 64.2795 638.244 62.3396 632.742 62.3396C627.337 62.3396 622.703 64.2795 618.939 68.2563C615.078 72.2331 613.243 76.8885 613.243 82.4175C613.243 88.14 615.174 92.8927 619.035 96.6757C622.896 100.459 627.722 102.398 633.611 102.398C638.727 102.398 643.167 100.459 646.739 96.6757C650.214 92.6992 651.951 88.0432 651.951 82.6117Z" fill="#22B573"/>
<path d="M691.338 93.6705V94.6402C691.338 97.647 692.111 100.072 693.655 101.915C695.199 103.758 697.13 104.728 699.543 104.728C701.86 104.728 703.694 104.049 705.142 102.594C706.59 101.236 707.362 99.393 707.362 97.2592C707.362 95.2222 706.783 93.5737 705.721 92.3122C704.659 91.0515 702.729 89.694 700.026 88.4325C698.481 87.7537 696.165 86.784 693.172 85.5232C690.18 84.2617 688.25 83.292 687.381 82.6132C684.871 80.5762 683.037 78.2482 681.879 75.7267C680.72 73.2045 680.141 70.2946 680.141 67.0938C680.141 61.371 682.168 56.5213 686.126 52.6415C690.084 48.6647 694.91 46.7248 700.605 46.7248C706.59 46.7248 711.416 48.4707 714.891 51.9625C718.366 55.4544 720.297 60.3042 720.586 66.6088H706.493V66.2208C706.493 64.0869 705.914 62.341 704.853 61.0801C703.694 59.8191 702.15 59.2372 700.123 59.2372C698.385 59.2372 696.937 59.8191 695.779 61.0801C694.62 62.341 694.041 63.7959 694.041 65.6388C694.041 68.6457 697.033 71.3616 703.115 73.8834C704.755 74.5624 705.914 75.0472 706.783 75.4357C712.575 78.054 716.532 80.8672 718.656 83.874C720.78 86.8807 721.841 90.9547 721.841 96.0952C721.841 102.4 719.718 107.638 715.471 111.808C711.223 115.979 705.818 118.016 699.35 118.016C692.883 118.016 687.574 115.882 683.616 111.517C679.658 107.152 677.438 101.236 677.052 93.8647L691.338 93.6705Z" fill="#22B573"/>
<path d="M72.2055 157.591C70.8541 158.949 69.5028 160.307 68.1513 161.665C69.9854 159.919 71.7229 158.173 73.5569 156.427C73.5569 156.427 73.5569 156.427 73.4604 156.427C73.0743 156.718 72.5916 157.106 72.2055 157.591Z" fill="#0071BC"/>
<path d="M81.0834 52.0597C81.1797 46.531 81.373 41.0993 83.1106 35.7646C86.1029 26.841 93.9213 22.5733 101.258 22.5733C103.864 22.5733 106.084 24.4161 106.567 26.744C106.953 28.8779 105.505 30.9148 102.899 31.9818C102.609 32.0788 102.32 32.1757 102.03 32.2727C101.451 32.4667 100.872 32.6608 100.293 32.8547C95.5627 34.4066 92.86 37.8015 92.4733 42.5542C91.9912 47.695 92.2808 52.8357 91.9912 57.8794C91.8941 59.5284 91.2187 61.2742 90.2536 62.6322C89.0952 64.4751 86.9717 64.5721 84.9445 63.9901C83.0136 63.5052 81.8552 62.0503 81.5656 60.1103C81.276 57.5884 81.276 54.7756 81.0834 52.0597Z" fill="#0071BC"/>
<path d="M140.059 41.393C140.059 38.0951 139.674 34.6033 138.901 31.4024C134.944 14.6223 121.429 2.49791 104.441 0.36402C91.4088 -1.2849 80.1152 2.69189 70.7521 11.8094C62.5471 19.86 58.5895 29.7536 58.493 41.1989C58.3965 60.986 58.493 80.7728 58.493 100.56C58.493 101.239 58.493 101.918 58.493 102.694C61.1958 102.306 63.9951 102.403 66.9875 102.985C78.2813 105.119 86.4864 111.23 89.7683 122.772C90.2512 124.421 90.4438 126.07 90.7334 127.718V130.726C90.4438 132.278 90.2512 133.829 89.8646 135.284C88.6099 140.037 86.0998 144.111 82.6253 147.506C79.633 150.416 76.64 153.326 73.6479 156.332C74.3236 156.817 74.8061 157.205 75.3853 157.593C84.7488 164.286 95.1736 166.808 106.467 164.771C126.449 161.182 140.156 144.402 140.156 124.033C140.059 96.486 140.156 68.9396 140.059 41.393ZM126.449 83.3918C108.205 83.3918 90.3475 83.3918 72.2966 83.3918C72.2966 82.9065 72.2 82.422 72.2 82.0335C72.2 67.7756 71.9104 53.5173 72.2966 39.2591C72.6827 25.7768 84.4592 14.2343 97.2971 14.3313C101.834 14.3313 106.275 14.3313 110.425 16.2712C119.402 20.539 124.615 27.7166 126.063 37.5131C126.353 39.647 126.353 41.7809 126.353 43.9148C126.353 56.3302 126.353 68.6486 126.353 81.0638C126.449 81.7425 126.449 82.5188 126.449 83.3918Z" fill="#0071BC"/>
<path d="M89.7715 135.383C90.1574 133.928 90.3507 132.376 90.6403 130.823V127.817C90.3507 126.168 90.1574 124.519 89.6752 122.87C86.3926 111.328 78.1883 105.217 66.8942 103.083C63.9983 102.501 61.1025 102.404 58.3997 102.792C58.3997 102.889 58.3997 102.889 58.3997 102.986C54.0559 103.956 50.3879 106.09 47.2024 109.194C45.9475 110.357 44.5962 109.873 43.5343 108.806C38.0322 103.18 31.1787 101.725 23.746 103.083C12.4522 105.217 4.24725 111.328 0.965286 122.87C0.482642 124.519 0.289585 126.168 0 127.817C0 128.787 0 129.854 0 130.823C0.289585 132.376 0.482644 133.928 0.868755 135.383C2.12363 140.135 4.63337 144.209 8.10843 147.604C17.6647 157.013 27.4141 166.421 36.9704 175.83C39.094 177.963 41.7003 179.224 44.4996 180C45.2719 180 45.9475 180 46.7198 180C50.4844 179.224 53.1871 176.897 55.7935 174.18C59.8476 169.913 63.9018 165.839 68.0526 161.668C63.2261 166.421 58.3997 171.077 53.5733 175.83C58.3997 171.077 63.2261 166.324 68.0526 161.668C69.404 160.311 70.7553 158.952 72.1068 157.595C72.4929 157.206 72.9755 156.722 73.3617 156.333C73.3617 156.333 73.3616 156.333 73.4582 156.333C76.4507 153.424 79.443 150.514 82.4352 147.507C86.0067 144.209 88.5168 140.135 89.7715 135.383ZM75.099 134.412C74.2304 136.449 72.7825 138.486 71.238 140.135C63.8053 147.798 56.2761 155.364 48.7468 162.93C46.0441 165.645 44.3066 165.645 41.6037 162.93C34.0746 155.364 26.5453 147.798 19.1126 140.135C16.1203 137.129 14.1897 133.54 14.1897 129.175C14.1897 120.251 22.4911 114.238 31.1787 116.759C34.5572 117.729 37.3565 119.766 39.7697 122.191C45.0788 127.332 45.3684 127.138 50.5809 122.191C53.2837 119.573 56.3726 117.438 60.1372 116.565C65.2532 115.401 69.6935 116.759 73.0721 120.736C76.547 124.713 77.2224 129.466 75.099 134.412Z" fill="#22B573"/>
</g>
<defs>
<clipPath id="clip0_2_3">
<rect width="724" height="180" fill="white"/>
</clipPath>
</defs>
</svg>
